<?xml version="1.0" encoding="utf-8"?>
<!-- Generator: Adobe Illustrator 18.1.0, SVG Export Plug-In . SVG Version: 6.00 Build 0)  -->
<svg version="1.1" id="Layer_1" xmlns="http://www.w3.org/2000/svg" xmlns:xlink="http://www.w3.org/1999/xlink" x="0px" y="0px"
	 viewBox="0 0 1600 1000" enable-background="new 0 0 1600 1000" xml:space="preserve">
<g>
	<path fill="none" stroke="#54432C" stroke-miterlimit="10" d="M950.6,721.1H742.8c-5.9,0-10.7,4.8-10.7,10.7v133.3
		c0,5.9,4.8,10.7,10.7,10.7h134.4c0,0,32.7,19.3,41.7,25.3c-6-15.6-6.7-25.3-6.7-25.3h38.4c5.9,0,10.7-4.8,10.7-10.7V731.9
		C961.3,725.9,956.5,721.1,950.6,721.1z"/>
	<path fill="none" stroke="#54432C" stroke-miterlimit="10" d="M790.3,813.9c0,6.2-5.1,11.3-11.3,11.3c-6.2,0-11.3-5.1-11.3-11.3
		c0-6.2,5.1-11.3,11.3-11.3C785.3,802.6,790.3,807.6,790.3,813.9z"/>
	<path fill="none" stroke="#54432C" stroke-miterlimit="10" d="M833.6,813.9c0,6.2-5.1,11.3-11.3,11.3c-6.2,0-11.3-5.1-11.3-11.3
		c0-6.2,5.1-11.3,11.3-11.3C828.6,802.6,833.6,807.6,833.6,813.9z"/>
	<path fill="none" stroke="#54432C" stroke-miterlimit="10" d="M688.3,860.5c0,4.5-3.6,8.1-8.1,8.1c-4.5,0-8.1-3.6-8.1-8.1
		s3.6-8.1,8.1-8.1C684.7,852.4,688.3,856,688.3,860.5z"/>
	<path fill="none" stroke="#54432C" stroke-miterlimit="10" d="M719.4,860.5c0,4.5-3.6,8.1-8.1,8.1c-4.5,0-8.1-3.6-8.1-8.1
		s3.6-8.1,8.1-8.1C715.8,852.4,719.4,856,719.4,860.5z"/>
	<circle fill="none" stroke="#54432C" stroke-miterlimit="10" cx="865.7" cy="813.9" r="11.3"/>
	<path fill="none" stroke="#54432C" stroke-miterlimit="10" d="M836.9,875.9v15.6c0,5-4,9-9,9H715.5c0,0-27.4,16.2-34.9,21.2
		c5-13.1,5.6-21.2,5.6-21.2H654c-5,0-9-4-9-9V779.9c0-4.9,4-9,9-9h78"/>
</g>
<g>
	<path fill="none" stroke="#54432C" stroke-miterlimit="10" d="M813.2,330.4c0,0-169.2,0-188.9,0c-19.7,0-15.6-39.4-15.6-39.4h31.2
		H782v19.7h31.2"/>
	<path fill="none" stroke="#54432C" stroke-miterlimit="10" d="M642.3,291V114.4c0,0-0.4-26.3,32.9-26.3c39.4,0,138,0,138,0"/>
	<path fill="none" stroke="#54432C" stroke-miterlimit="10" d="M813.2,107.8H673.5c0,0-9.9,0.8-9.9,9c0,8.2,0,150.3,0,150.3
		s0,12.3,11.5,12.3c11.5,0,138,0,138,0"/>
	<path fill="none" stroke="#54432C" stroke-miterlimit="10" d="M813.2,330.4c0,0,169.2,0,188.9,0c19.7,0,15.6-39.4,15.6-39.4h-31.2
		H844.4v19.7h-31.2"/>
	<path fill="none" stroke="#54432C" stroke-miterlimit="10" d="M984,291V114.4c0,0,2.1-26.3-32.9-26.3c-39.4,0-138,0-138,0"/>
	<path fill="none" stroke="#54432C" stroke-miterlimit="10" d="M813.2,107.8h139.6c0,0,9.9,0.8,9.9,9c0,8.2,0,150.3,0,150.3
		s0,12.3-11.5,12.3c-11.5,0-138,0-138,0"/>
	<line fill="none" stroke="#54432C" stroke-miterlimit="10" x1="782" y1="291" x2="844.4" y2="291"/>
	<path fill="none" stroke="#54432C" stroke-miterlimit="10" d="M817.2,275.1"/>
</g>
<g>
	<path fill="none" stroke="#54432C" stroke-miterlimit="10" d="M174.2,838V714.5c0-8.4,6.8-15.3,15.3-15.3h117.7
		c7.7,0,14,6.2,14.1,14l0.2,20.6c0,0,0.5,11.9,13.7,11.9c7.1,0,15.5,0,22.5,0c7.8,0,14.1,6.3,14.1,14.1v149.7
		c0,8.4-6.8,15.3-15.3,15.3H189.5c-8.4,0-15.3-6.8-15.3-15.3V874"/>
	<path fill="none" stroke="#54432C" stroke-miterlimit="10" d="M307.2,699.2c41.8,0,64.5,19,64.5,60.6"/>
	<line fill="none" stroke="#54432C" stroke-miterlimit="10" x1="194.7" y1="759.5" x2="350.7" y2="759.5"/>
	<line fill="none" stroke="#54432C" stroke-miterlimit="10" x1="194.7" y1="784.1" x2="350.7" y2="784.1"/>
	<line fill="none" stroke="#54432C" stroke-miterlimit="10" x1="194.7" y1="808.8" x2="350.7" y2="808.8"/>
	<line fill="none" stroke="#54432C" stroke-miterlimit="10" x1="194.7" y1="833.5" x2="350.7" y2="833.5"/>
	<line fill="none" stroke="#54432C" stroke-miterlimit="10" x1="194.7" y1="858.2" x2="350.7" y2="858.2"/>
	<line fill="none" stroke="#54432C" stroke-miterlimit="10" x1="219.1" y1="882.9" x2="350.7" y2="882.9"/>
</g>
<g>
	<path fill="none" stroke="#54432C" stroke-miterlimit="10" d="M100.9,107v-7.9c0-11.2,9.1-20.2,20.2-20.2h44.4
		c11.2,0,20.2,9,20.2,20.2v7.9"/>
	<path fill="none" stroke="#54432C" stroke-miterlimit="10" d="M76.7,139.7c0,0-46.7-18-21.4,76.3c3.4,10.7-35.9,92,21.4,84.1"/>
	<path fill="none" stroke="#54432C" stroke-miterlimit="10" d="M198.9,237.4c0,25.3,20.5,45.9,45.9,45.9c25.4,0,45.9-20.6,45.9-45.9
		c0-25.4-20.5-45.9-45.9-45.9C219.4,191.5,198.9,212.1,198.9,237.4z"/>
	<path fill="none" stroke="#54432C" stroke-miterlimit="10" d="M372.1,127.3c0-11.2-9-20.2-20.2-20.2h-255
		c-11.2,0-20.2,9.1-20.2,20.2v186.4c0,11.2,9,20.2,20.2,20.2h255c11.2,0,20.2-9,20.2-20.2V179.2h-85c18,13.1,29.6,34.3,29.6,58.2
		c0,39.8-32.2,72-72,72c-39.8,0-72-32.3-72-72c0-24,11.7-45.2,29.6-58.2H100.9v-21.4h271.2V127.3z M337.3,137.9h-24.7
		c-5.6,0-10.1-4.5-10.1-10.1c0-5.6,4.5-10.1,10.1-10.1h24.7c5.6,0,10.1,4.5,10.1,10.1C347.4,133.4,342.8,137.9,337.3,137.9z"/>
</g>
<g>
	<line fill="none" stroke="#54432C" stroke-miterlimit="10" x1="1373.2" y1="209.4" x2="1311.8" y2="122.6"/>
	<path fill="none" stroke="#54432C" stroke-miterlimit="10" d="M1411.3,220.6l64.4,91.1c3.9,5.6,7.1,10.1-2.9,17.2l0,0
		c-10.1,7.1-13.2,2.6-17.2-2.9l-63.5-89.8"/>
	<line fill="none" stroke="#54432C" stroke-miterlimit="10" x1="1332.7" y1="109.4" x2="1392.4" y2="193.8"/>
	<path fill="none" stroke="#54432C" stroke-miterlimit="10" d="M1479.2,322.5c2.8,4,1.9,9.4-2.1,12.2l0,0c-4,2.8-9.4,1.9-12.2-2.1"
		/>
	<line fill="none" stroke="#54432C" stroke-miterlimit="10" x1="1347.6" y1="173.3" x2="1369.1" y2="158.1"/>
	<polygon fill="none" stroke="#54432C" stroke-miterlimit="10" points="1332.3,108.9 1312.2,123.1 1308.1,126 1267.3,68.3 
		1341.2,102.6 	"/>
	<line fill="none" stroke="#54432C" stroke-miterlimit="10" x1="1333.7" y1="107.9" x2="1277.6" y2="82.9"/>
</g>
<g>
	<line fill="none" stroke="#54432C" stroke-miterlimit="10" x1="44.4" y1="744.2" x2="62.4" y2="726.2"/>
	<line fill="none" stroke="#54432C" stroke-miterlimit="10" x1="59.9" y1="759.7" x2="77.9" y2="741.7"/>
	<path fill="none" stroke="#54432C" stroke-miterlimit="10" d="M221.7,885.5l16.8,34.8l-34.8-16.8L44.4,744.2c-5-5-5-13,0-18l0,0
		c5-5,13-5,18,0L221.7,885.5z"/>
	<line fill="none" stroke="#54432C" stroke-miterlimit="10" x1="203.4" y1="903.2" x2="222.3" y2="884.3"/>
</g>
<g>
	<path fill="none" stroke="#54432C" stroke-miterlimit="10" d="M1497.2,107.9c8.1-7.1,8.1-7.1,15,1.6l7.2,8.8
		c7.1,8.3,7.1,8.3-1.6,15l-237,191.9c-8.1,6.4-8.1,6.4-15-1.6l-7.2-8.8c-6.4-8.3-6-8.5,1.6-15L1497.2,107.9z"/>
	<line fill="none" stroke="#54432C" stroke-miterlimit="10" x1="1281.7" y1="303.4" x2="1271.4" y2="290.7"/>
	<line fill="none" stroke="#54432C" stroke-miterlimit="10" x1="1301.2" y1="287.6" x2="1290.9" y2="274.9"/>
	<line fill="none" stroke="#54432C" stroke-miterlimit="10" x1="1320.7" y1="271.9" x2="1310.4" y2="259.2"/>
	<line fill="none" stroke="#54432C" stroke-miterlimit="10" x1="1340.2" y1="256.1" x2="1329.9" y2="243.4"/>
	<line fill="none" stroke="#54432C" stroke-miterlimit="10" x1="1359.7" y1="240.3" x2="1349.4" y2="227.6"/>
	<line fill="none" stroke="#54432C" stroke-miterlimit="10" x1="1379.2" y1="224.5" x2="1368.9" y2="211.8"/>
	<line fill="none" stroke="#54432C" stroke-miterlimit="10" x1="1398.7" y1="208.7" x2="1388.4" y2="196"/>
	<line fill="none" stroke="#54432C" stroke-miterlimit="10" x1="1418.2" y1="192.9" x2="1407.9" y2="180.2"/>
	<line fill="none" stroke="#54432C" stroke-miterlimit="10" x1="1437.7" y1="177.1" x2="1427.4" y2="164.4"/>
	<line fill="none" stroke="#54432C" stroke-miterlimit="10" x1="1457.2" y1="161.3" x2="1447" y2="148.6"/>
	<line fill="none" stroke="#54432C" stroke-miterlimit="10" x1="1476.7" y1="145.5" x2="1466.5" y2="132.8"/>
	<line fill="none" stroke="#54432C" stroke-miterlimit="10" x1="1496.2" y1="129.7" x2="1486" y2="117"/>
</g>
<line fill="none" stroke="#54432C" stroke-miterlimit="10" x1="1428.4" y1="635.1" x2="1302.5" y2="900.9"/>
<polyline fill="none" stroke="#54432C" stroke-miterlimit="10" points="1397.4,855.8 1533.5,786.7 1413.4,712.8 "/>
<polyline fill="none" stroke="#54432C" stroke-miterlimit="10" points="1313.4,712.8 1177.3,781.9 1297.3,855.8 "/>
<path fill="none" stroke="#54432C" stroke-miterlimit="10" d="M174.2,838"/>
<path fill="none" stroke="#54432C" stroke-miterlimit="10" d="M174.2,874"/>
<line fill="none" stroke="#AA3524" stroke-width="0.5" stroke-miterlimit="10" x1="571.6" y1="584.9" x2="645.1" y2="675.6"/>
<line fill="none" stroke="#AA3524" stroke-width="0.5" stroke-miterlimit="10" x1="393.7" y1="365.3" x2="460.7" y2="448.1"/>
<line fill="none" stroke="#AA3524" stroke-width="0.5" stroke-miterlimit="10" x1="817.3" y1="584.9" x2="817.3" y2="675.6"/>
<line fill="none" stroke="#AA3524" stroke-width="0.5" stroke-miterlimit="10" x1="817.3" y1="361.7" x2="817.3" y2="448.1"/>
<line fill="none" stroke="#AA3524" stroke-width="0.5" stroke-miterlimit="10" x1="121.8" y1="365.3" x2="174.2" y2="675.6"/>
<line fill="none" stroke="#AA3524" stroke-width="0.5" stroke-miterlimit="10" x1="596.6" y1="448.1" x2="719.4" y2="361.7"/>
<line fill="none" stroke="#AA3524" stroke-width="0.5" stroke-miterlimit="10" x1="273" y1="675.6" x2="402" y2="584.9"/>
<line fill="none" stroke="#AA3524" stroke-width="0.5" stroke-miterlimit="10" x1="1021.2" y1="448.1" x2="1254.1" y2="361.7"/>
<line fill="none" stroke="#AA3524" stroke-width="0.5" stroke-miterlimit="10" x1="407.3" y1="675.6" x2="652" y2="584.9"/>
<line fill="none" stroke="#AA3524" stroke-width="0.5" stroke-miterlimit="10" x1="1268.1" y1="448.1" x2="1379.6" y2="365.3"/>
<line fill="none" stroke="#AA3524" stroke-width="0.5" stroke-miterlimit="10" x1="961.3" y1="675.6" x2="1083.6" y2="584.9"/>
<line fill="none" stroke="#AA3524" stroke-width="0.5" stroke-miterlimit="10" x1="1063.3" y1="448.1" x2="953.5" y2="361.7"/>
<line fill="none" stroke="#AA3524" stroke-width="0.5" stroke-miterlimit="10" x1="1352.7" y1="675.6" x2="1237.4" y2="584.9"/>
<line fill="none" stroke="#AA3524" stroke-width="0.5" stroke-miterlimit="10" x1="1468.3" y1="675.6" x2="1468.3" y2="361.7"/>
<line fill="none" stroke="#AA3524" stroke-width="0.5" stroke-miterlimit="10" x1="518.8" y1="448.5" x2="252.4" y2="361.7"/>
<line fill="none" stroke="#AA3524" stroke-width="0.5" stroke-miterlimit="10" x1="1215.9" y1="675.6" x2="937.5" y2="584.9"/>
<g>
	<g>
		<path fill="#AA3524" d="M352,475c7.4,0,13.1,1.5,17.2,4.5c4.1,3,6.1,7.6,6.1,13.7c0,4.2-1.1,7.8-3.3,10.7
			c-2.2,2.9-5.3,4.7-9.2,5.4c4.4,0.6,8.2,2.5,11.2,5.8c3,3.3,4.5,7.1,4.5,11.4c0,6.2-2,11-6,14.5c-4,3.4-9.3,5.1-16,5.1h-31.2v-2.6
			h8v-65.9h-8V475h8H352z M336,508.4H353c6.5,0,11.4-1.3,14.7-3.8c3.3-2.5,4.9-6.4,4.9-11.6c0-5.1-1.7-8.9-5.2-11.5
			c-3.5-2.6-8.6-3.9-15.4-3.9H336V508.4z M336,511.1v32.5h20.6c6,0,10.7-1.5,14.2-4.4c3.5-3,5.2-7.1,5.2-12.4c0-4.4-1.7-8.1-5-11.1
			c-3.3-3-7.9-4.5-13.9-4.5H336z"/>
		<path fill="#AA3524" d="M398,493.3l0.5,9.2v1.8c1.5-3.8,3.6-6.7,6.5-8.8c2.9-2.1,6.5-3.2,10.7-3.2c0.7,0,1.4,0.1,2.1,0.2
			c0.6,0.1,1.2,0.2,1.6,0.4l-0.3,2.3l-3.4-0.3c-4.7,0-8.6,1.5-11.5,4.6c-2.9,3-4.9,7.1-5.7,12v32h8v2.6h-18.6v-2.6h8V496h-8v-2.6h8
			H398z"/>
		<path fill="#AA3524" d="M447.6,547.2c-6,0-11.2-2.4-15.6-7.3c-4.4-4.9-6.6-10.9-6.6-18.2v-3.1c0-7.6,2.1-13.9,6.4-18.8
			c4.2-5,9.5-7.5,15.7-7.5c6,0,10.8,2,14.6,5.9c3.8,3.9,5.6,9.2,5.6,15.7v4.1H428v0.6v3.1c0,6.4,1.9,11.8,5.6,16.2
			c3.7,4.4,8.4,6.6,13.9,6.6c3.9,0,7.2-0.5,9.9-1.6c2.7-1.1,4.9-2.7,6.8-4.8l1.4,2.1c-2.1,2.3-4.6,4.1-7.6,5.3
			C455.1,546.6,451.6,547.2,447.6,547.2z M447.4,495c-5.2,0-9.6,1.9-13.1,5.7c-3.5,3.8-5.5,8.6-5.9,14.3l0.1,0.3H465v-1.6
			c0-5.4-1.6-9.8-4.9-13.4C456.9,496.8,452.6,495,447.4,495z"/>
		<path fill="#AA3524" d="M515.1,546.2c-0.4-2.3-0.7-4-0.9-5.2c-0.1-1.2-0.2-2.4-0.2-3.7v-0.8c-2,3.2-4.8,5.7-8.5,7.7
			c-3.6,2-7.9,3-12.8,3c-4.9,0-8.7-1.3-11.6-4c-2.8-2.7-4.2-6.1-4.2-10.4c0-4.8,2.2-8.6,6.5-11.6c4.3-3,10.1-4.5,17.4-4.5H514V509
			c0-4.4-1.4-7.8-4.2-10.3c-2.8-2.5-6.8-3.7-11.9-3.7c-3.4,0-6.5,0.5-9.4,1.4c-2.9,0.9-5.4,2.2-7.5,3.9l0,8.5h-2.6l0-10.1
			c2.5-1.9,5.5-3.4,8.9-4.6c3.4-1.2,6.9-1.8,10.6-1.8c5.7,0,10.2,1.4,13.6,4.3c3.4,2.9,5.1,7,5.1,12.4v26.5c0,1.4,0.1,2.7,0.2,4.1
			c0.1,1.3,0.3,2.7,0.6,4h6.4v2.6H515.1z M492.7,544.6c5,0,9.3-1.1,13-3.4c3.7-2.2,6.4-5.4,8.3-9.3v-12.6h-13
			c-6.5,0-11.7,1.3-15.6,3.8c-3.9,2.5-5.9,5.8-5.9,9.8c0,3.3,1.2,6.1,3.6,8.3C485.6,543.5,488.8,544.6,492.7,544.6z"/>
		<path fill="#AA3524" d="M530.2,472.6V470h10.6v46.6h6.2l21-20.3l-0.1-0.3h-5.8v-2.6h15.7v2.6h-6L550,517.4l23.9,26.1h5.7v2.6
			h-15.6v-2.6h6.2l0.1-0.2L548,519.2h-7.2v24.4h8v2.6h-18.6v-2.6h8v-70.9H530.2z"/>
		<path fill="#AA3524" d="M612.5,518.7c0-7.8,2.1-14.1,6.4-19c4.3-4.9,9.8-7.4,16.7-7.4c6.9,0,12.5,2.5,16.7,7.4
			c4.3,4.9,6.4,11.3,6.4,19v2.1c0,7.8-2.1,14.1-6.4,19.1c-4.3,4.9-9.8,7.4-16.6,7.4c-6.9,0-12.5-2.5-16.8-7.4
			c-4.3-4.9-6.4-11.3-6.4-19.1V518.7z M615.1,520.8c0,6.6,1.9,12.3,5.6,16.9c3.7,4.6,8.7,6.9,15,6.9c6.2,0,11.1-2.3,14.9-6.9
			c3.7-4.6,5.6-10.2,5.6-16.9v-2.1c0-6.5-1.9-12.1-5.6-16.7c-3.7-4.7-8.7-7-14.9-7c-6.2,0-11.2,2.3-14.9,7
			c-3.7,4.7-5.6,10.3-5.6,16.7V520.8z"/>
		<path fill="#AA3524" d="M706.7,536.7c-1.7,3.4-4,5.9-7.1,7.8c-3.1,1.8-6.8,2.7-11.2,2.7c-5.4,0-9.7-1.9-12.8-5.8
			c-3.1-3.9-4.6-9.8-4.6-18V496h-7v-2.6h7h2.6v30.2c0,7.2,1.3,12.5,4,15.9s6.2,5.1,10.7,5.1c5.5,0,9.7-1.4,12.7-4.1
			c2.9-2.7,4.8-6.3,5.6-10.7V496h-8v-2.6h8h2.7v50.2h8v2.6h-10.2L706.7,536.7z"/>
		<path fill="#AA3524" d="M733.2,479.1v14.3h13v2.7h-13v36.5c0,4.3,0.7,7.4,2.2,9.3c1.5,1.8,3.4,2.8,5.8,2.8c1,0,2,0,2.8-0.1
			c0.8-0.1,1.9-0.2,3.4-0.3l0.5,2.4c-1,0.3-2,0.4-3,0.5c-1,0.1-2.2,0.1-3.5,0.1c-3.6,0-6.2-1.2-8.1-3.5c-1.8-2.3-2.8-6-2.8-11.2V496
			h-9.8v-2.7h9.8v-14.3H733.2z"/>
		<path fill="#AA3524" d="M781.7,518.7c0-7.8,2.1-14.1,6.4-19c4.3-4.9,9.8-7.4,16.7-7.4c6.9,0,12.5,2.5,16.7,7.4
			c4.3,4.9,6.4,11.3,6.4,19v2.1c0,7.8-2.1,14.1-6.4,19.1c-4.3,4.9-9.8,7.4-16.6,7.4c-6.9,0-12.5-2.5-16.8-7.4
			c-4.3-4.9-6.4-11.3-6.4-19.1V518.7z M784.3,520.8c0,6.6,1.9,12.3,5.6,16.9c3.7,4.6,8.7,6.9,15,6.9c6.2,0,11.1-2.3,14.9-6.9
			c3.7-4.6,5.6-10.2,5.6-16.9v-2.1c0-6.5-1.9-12.1-5.6-16.7c-3.7-4.7-8.7-7-14.9-7c-6.2,0-11.2,2.3-14.9,7
			c-3.7,4.7-5.6,10.3-5.6,16.7V520.8z"/>
		<path fill="#AA3524" d="M838.6,543.6h8V496h-9.2v-2.7h9.2v-8.7c0-5,1.2-8.8,3.6-11.6c2.4-2.7,5.8-4.1,10.2-4.1
			c1.1,0,2.1,0.1,3.2,0.2c1.1,0.1,2.1,0.3,3.1,0.6l-0.4,2.5c-1-0.3-2-0.4-2.8-0.6c-0.8-0.1-1.8-0.2-3.1-0.2c-3.5,0-6.3,1.2-8.3,3.5
			c-2,2.3-3,5.5-3,9.6v8.7h14v2.7h-14v47.5h8v2.6h-18.6V543.6z"/>
		<path fill="#AA3524" d="M910.5,496h-6.9l16.4,40.7l2,5.3h0.3l0.3-0.8l17.2-45.1h-6.9v-2.6h15.6v2.6h-5.8l-22.5,59
			c-1.4,3.7-3.1,6.7-5,9.1c-1.9,2.3-4.9,3.5-9.1,3.5c-0.6,0-1.3-0.1-2.1-0.2c-0.8-0.1-1.3-0.2-1.7-0.4l0.4-2.5
			c0.4,0.1,0.9,0.2,1.6,0.3c0.7,0.1,1.3,0.1,1.7,0.1c3,0,5.3-0.9,7-2.6c1.7-1.8,3.2-4.4,4.5-7.8l3.2-8.6l-20-49.9h-5.8v-2.6h15.6
			V496z"/>
		<path fill="#AA3524" d="M948.5,518.7c0-7.8,2.1-14.1,6.4-19c4.3-4.9,9.8-7.4,16.7-7.4c6.9,0,12.5,2.5,16.7,7.4
			c4.3,4.9,6.4,11.3,6.4,19v2.1c0,7.8-2.1,14.1-6.4,19.1c-4.3,4.9-9.8,7.4-16.6,7.4c-6.9,0-12.5-2.5-16.8-7.4
			c-4.3-4.9-6.4-11.3-6.4-19.1V518.7z M951.2,520.8c0,6.6,1.9,12.3,5.6,16.9c3.7,4.6,8.7,6.9,15,6.9c6.2,0,11.1-2.3,14.9-6.9
			c3.7-4.6,5.6-10.2,5.6-16.9v-2.1c0-6.5-1.9-12.1-5.6-16.7c-3.7-4.7-8.7-7-14.9-7c-6.2,0-11.2,2.3-14.9,7
			c-3.7,4.7-5.6,10.3-5.6,16.7V520.8z"/>
		<path fill="#AA3524" d="M1040.8,536.7c-1.7,3.4-4,5.9-7.1,7.8c-3.1,1.8-6.8,2.7-11.2,2.7c-5.4,0-9.7-1.9-12.8-5.8
			c-3.1-3.9-4.6-9.8-4.6-18V496h-7v-2.6h7h2.6v30.2c0,7.2,1.3,12.5,4,15.9c2.6,3.4,6.2,5.1,10.7,5.1c5.5,0,9.7-1.4,12.7-4.1
			c2.9-2.7,4.8-6.3,5.6-10.7V496h-8v-2.6h8h2.7v50.2h8v2.6h-10.2L1040.8,536.7z"/>
		<path fill="#AA3524" d="M1068.1,493.3l0.5,9.2v1.8c1.5-3.8,3.6-6.7,6.5-8.8c2.9-2.1,6.5-3.2,10.7-3.2c0.7,0,1.4,0.1,2.1,0.2
			c0.6,0.1,1.2,0.2,1.6,0.4l-0.3,2.3l-3.4-0.3c-4.7,0-8.6,1.5-11.5,4.6c-2.9,3-4.9,7.1-5.7,12v32h8v2.6H1058v-2.6h8V496h-8v-2.6h8
			H1068.1z"/>
		<path fill="#AA3524" d="M1158.4,509.4h-2.6v-8.6c-1.7-1.9-3.9-3.3-6.5-4.3c-2.6-1-5.7-1.5-9.1-1.5c-5,0-8.7,1.1-11.2,3.2
			c-2.5,2.1-3.8,4.6-3.8,7.4c0,2.8,1.1,5.1,3.2,7.1c2.2,2,6.4,3.7,12.8,5.1c5.9,1.4,10.4,3.2,13.4,5.6c3,2.4,4.6,5.7,4.6,9.9
			c0,4.1-1.7,7.5-5.1,10.1c-3.4,2.6-7.9,3.9-13.5,3.9c-3.8,0-7.4-0.6-10.6-1.9c-3.2-1.2-6-2.9-8.1-5.1v-9.4h2.6v8
			c1.9,2.1,4.3,3.5,7.1,4.4c2.8,0.9,5.8,1.4,9,1.4c4.9,0,8.8-1.1,11.6-3.4c2.9-2.3,4.3-4.9,4.3-7.9c0-2.8-1.2-5.3-3.6-7.6
			c-2.4-2.3-6.6-4.1-12.5-5.4c-6.2-1.3-10.8-3-13.6-5.2c-2.8-2.2-4.3-5.3-4.3-9.3c0-3.8,1.6-6.9,4.8-9.5c3.2-2.6,7.5-3.8,12.9-3.8
			c3.8,0,7.3,0.7,10.5,2c3.2,1.3,5.8,3,7.7,5.2V509.4z"/>
		<path fill="#AA3524" d="M1168.4,543.6h8V496h-8v-2.6h10.6v50.2h8v2.6h-18.6V543.6z M1179,476.7h-2.6V470h2.6V476.7z"/>
		<path fill="#AA3524" d="M1195.8,472.6V470h10.6v73.6h8v2.6h-18.6v-2.6h8v-70.9H1195.8z"/>
		<path fill="#AA3524" d="M1220.3,518.7c0-7.8,2.1-14.1,6.4-19c4.3-4.9,9.8-7.4,16.7-7.4c6.9,0,12.5,2.5,16.7,7.4
			c4.3,4.9,6.4,11.3,6.4,19v2.1c0,7.8-2.1,14.1-6.4,19.1c-4.3,4.9-9.8,7.4-16.6,7.4c-6.9,0-12.5-2.5-16.8-7.4
			c-4.3-4.9-6.4-11.3-6.4-19.1V518.7z M1222.9,520.8c0,6.6,1.9,12.3,5.6,16.9c3.7,4.6,8.7,6.9,15,6.9c6.2,0,11.1-2.3,14.9-6.9
			c3.7-4.6,5.6-10.2,5.6-16.9v-2.1c0-6.5-1.9-12.1-5.6-16.7c-3.7-4.7-8.7-7-14.9-7c-6.2,0-11.2,2.3-14.9,7
			c-3.7,4.7-5.6,10.3-5.6,16.7V520.8z"/>
		<path fill="#AA3524" d="M1276.9,546.2h-4.2v-6.4h4.2V546.2z"/>
	</g>
</g>
</svg>
