<?xml version="1.0" encoding="utf-8"?>
<!-- Generator: Adobe Illustrator 18.1.0, SVG Export Plug-In . SVG Version: 6.00 Build 0)  -->
<svg version="1.1" id="Layer_1" xmlns="http://www.w3.org/2000/svg" xmlns:xlink="http://www.w3.org/1999/xlink" x="0px" y="0px"
	 viewBox="0 0 500 148.5" enable-background="new 0 0 500 148.5" xml:space="preserve">
<ellipse fill="none" stroke="#A93424" stroke-miterlimit="10" cx="226.3" cy="27.5" rx="17" ry="16.3"/>
<ellipse fill="none" stroke="#A93424" stroke-miterlimit="10" cx="273.7" cy="27.5" rx="17" ry="16.3"/>
<path fill="none" stroke="#A93424" stroke-miterlimit="10" d="M273.7,14.7c7.4,0,13.3,5.7,13.3,12.8"/>
<path fill="none" stroke="#A93424" stroke-miterlimit="10" d="M226.3,14.7c-7.4,0-13.3,5.7-13.3,12.8"/>
<path fill="none" stroke="#A93424" stroke-miterlimit="10" d="M256.7,27.5c-3.9-3.9-9.9-4.3-13.4-0.9"/>
<line fill="none" stroke="#A93424" stroke-miterlimit="10" x1="194.3" y1="27.5" x2="209.3" y2="27.5"/>
<line fill="none" stroke="#A93424" stroke-miterlimit="10" x1="290.4" y1="27.5" x2="305.4" y2="27.5"/>
<g>
	<g>
		<path fill="#A93424" d="M64.7,135.5V70h2.8v69.3H64L15.7,72.8v66.4h-2.8V70h4.2L64.7,135.5z"/>
		<path fill="#A93424" d="M75.3,70h38v2.5H78.1v30.6h35.2v2.5H78.1v31.1h35.2v2.5h-38V70z"/>
		<path fill="#A93424" d="M123.1,70h15.8c10.8,0,15.1,0.9,18.4,2.9c5.6,2.8,10,10.4,10,18.4c0.2,4.3-1.1,9.7-4.4,14
			c-5.1,6.6-10.9,7.5-18.7,7.8l18.6,26.1h-3.6L139,110.7h2c5.1,0,13.3,0,17.7-4.4c4.4-4.6,5.9-9.4,5.9-14.8c0-6-2.9-12.6-8.2-16.1
			c-4.2-2.7-9.3-2.8-17.4-2.8h-13v66.7h-2.8V70z"/>
		<path fill="#A93424" d="M173.4,70H193c10.9,0,19.7,3.2,25.6,9.2c6,5.9,9.3,14.5,9.3,25.5c0,21.8-13.1,34.6-34.9,34.6h-19.6V70z
			 M176.2,136.8H193c20,0,32.1-11.9,32.1-31.9c0-10.1-2.9-18.2-8.4-23.8c-5.5-5.5-13.5-8.5-23.7-8.5h-16.8V136.8z"/>
		<path fill="#A93424" d="M233.5,70h2.6v19.7v13.1c3.6-7.7,11.2-14.1,23.2-14.3c16,0,26.1,12.4,26.1,26c0,13.4-9.8,26-26.1,26
			c-10.5,0-18.7-5.1-23.2-14v12.8h-2.6V70z M282.8,114.4c0-13.8-10.6-23.5-23.5-23.5c-13.3,0-23.5,10-23.5,23.6
			c0,12.8,9.5,23.6,23.2,23.6C275,138.1,282.7,125.7,282.8,114.4L282.8,114.4z"/>
		<path fill="#A93424" d="M292.5,89.7h2.6v9.5c4.7-9.8,13.2-10.4,17.5-10.7V91h-0.7c-10.6,0-16.8,7.7-16.8,21.1v27.1h-2.6V89.7z"/>
		<path fill="#A93424" d="M359.6,139.3h-2.6v-12.8c-4.5,8.9-12.7,14-23.2,14c-16.3,0-26.1-12.6-26.1-26c0-13.7,10.1-26,26.1-26
			c12,0,20.6,7.4,23.2,14.3V89.7h2.6V139.3z M310.3,114.6c0.1,11.1,7.8,23.5,23.8,23.5c10.6,0,18.6-6.5,21.8-15.4
			c1-2.7,1.5-5.7,1.4-8.7c0-3-0.6-6-1.7-8.6c-3.4-8.6-11.7-14.4-21.8-14.4C320.8,90.9,310.3,100.5,310.3,114.6L310.3,114.6z"/>
		<path fill="#A93424" d="M392,101.4c0-7.5-5.1-10.6-10.5-10.5c-6.6,0-11.1,4.5-10.9,10.4c0.3,6,3.8,8.2,10.9,10.2
			c6.6,1.8,13.9,3.6,14.5,14.1c0.5,8.1-6,14.9-14.5,14.9c-8.2,0-15.8-5.9-15.3-15h2.6c0,8,5.4,12.5,12.6,12.5
			c7.4,0,12.1-5.6,11.9-12.1c-0.2-6.8-3.9-10.1-12-11.9c-7.5-2.2-13.1-4.3-13.4-12.8c0-8.2,6.1-12.8,13.5-12.8
			c7.2,0.1,13.1,4.4,13.1,12.9H392z"/>
		<path fill="#A93424" d="M402.8,70h2.6v41.4l26.7-21.7h3.6l-26.5,21.8l28.5,27.8h-3.6l-28.7-27.7v27.7h-2.6V70z"/>
		<path fill="#A93424" d="M487.1,139.3h-2.6v-12.8c-4.5,8.9-12.7,14-23.2,14c-16.3,0-26.1-12.6-26.1-26c0-13.7,10.1-26,26.1-26
			c12,0,20.6,7.4,23.2,14.3V89.7h2.6V139.3z M437.8,114.6c0.1,11.1,7.8,23.5,23.8,23.5c10.6,0,18.6-6.5,21.8-15.4
			c1-2.7,1.5-5.7,1.4-8.7c0-3-0.6-6-1.7-8.6c-3.4-8.6-11.7-14.4-21.8-14.4C448.4,90.9,437.8,100.5,437.8,114.6L437.8,114.6z"/>
	</g>
</g>
</svg>
